HIERARCHY
ROOT hip
{
  OFFSET 0 0 0
  CHANNELS 6 Xposition Yposition Zposition Zrotation Yrotation Xrotation
  JOINT abdomen
  {
    OFFSET 0 20.6881 -0.73152
    CHANNELS 3 Zrotation Xrotation Yrotation
    JOINT chest
    {
      OFFSET 0 11.7043 -0.48768
      CHANNELS 3 Zrotation Xrotation Yrotation
      JOINT neck
      {
        OFFSET 0 22.1894 -2.19456
        CHANNELS 3 Zrotation Xrotation Yrotation
        JOINT head
        {
          OFFSET -0.24384 7.07133 1.2192
          CHANNELS 3 Zrotation Xrotation Yrotation
          JOINT leftEye
          {
            OFFSET 4.14528 8.04674 8.04672
            CHANNELS 3 Zrotation Xrotation Yrotation
            End Site
            {
              OFFSET 1 0 0
            }
          }
          JOINT rightEye
          {
            OFFSET -3.6576 8.04674 8.04672
            CHANNELS 3 Zrotation Xrotation Yrotation
            End Site
            {
              OFFSET 1 0 0
            }
          }
        }
      }
      JOINT rCollar
      {
        OFFSET -2.68224 19.2634 -4.8768
        CHANNELS 3 Zrotation Xrotation Yrotation
        JOINT rShldr
        {
          OFFSET -8.77824 -1.95073 1.46304
          CHANNELS 3 Zrotation Xrotation Yrotation
          JOINT rForeArm
          {
            OFFSET -28.1742 -1.7115 0.48768
            CHANNELS 3 Zrotation Xrotation Yrotation
            JOINT rHand
            {
              OFFSET -22.5879 0.773209 7.07136
              CHANNELS 3 Zrotation Xrotation Yrotation
              JOINT rThumb1
              {
                OFFSET -1.2192 -0.487915 3.41376
                CHANNELS 3 Zrotation Xrotation Yrotation
                JOINT rThumb2
                {
                  OFFSET -3.37035 -0.52449 3.41376
                  CHANNELS 3 Zrotation Xrotation Yrotation
                  End Site
                  {
                    OFFSET -1.78271 -1.18214 1.43049
                  }
                }
              }
              JOINT rIndex1
              {
                OFFSET -7.75947 0.938293 5.60832
                CHANNELS 3 Zrotation Xrotation Yrotation
                JOINT rIndex2
                {
                  OFFSET -2.54057 -0.884171 1.56538
                  CHANNELS 3 Zrotation Xrotation Yrotation
                  End Site
                  {
                    OFFSET -1.62519 -0.234802 1.16502
                  }
                }
              }
              JOINT rMid1
              {
                OFFSET -8.24714 1.18213 3.41376
                CHANNELS 3 Zrotation Xrotation Yrotation
                JOINT rMid2
                {
                  OFFSET -3.10165 -0.590103 1.0647
                  CHANNELS 3 Zrotation Xrotation Yrotation
                  End Site
                  {
                    OFFSET -2.48547 -0.328903 0.83742
                  }
                }
              }
              JOINT rRing1
              {
                OFFSET -8.82822 0.546677 1.51678
                CHANNELS 3 Zrotation Xrotation Yrotation
                JOINT rRing2
                {
                  OFFSET -2.60934 -0.819778 -0.0198488
                  CHANNELS 3 Zrotation Xrotation Yrotation
                  End Site
                  {
                    OFFSET -2.33842 -0.294052 0.168128
                  }
                }
              }
              JOINT rPinky1
              {
                OFFSET -8.27202 -0.0477905 -0.4584
                CHANNELS 3 Zrotation Xrotation Yrotation
                JOINT rPinky2
                {
                  OFFSET -1.82734 -0.647385 -0.700984
                  CHANNELS 3 Zrotation Xrotation Yrotation
                  End Site
                  {
                    OFFSET -1.69225 -0.51767 -0.607171
                  }
                }
              }
            }
          }
        }
      }
      JOINT lCollar
      {
        OFFSET 2.68224 19.2634 -4.8768
        CHANNELS 3 Zrotation Xrotation Yrotation
        JOINT lShldr
        {
          OFFSET 8.77824 -1.95073 1.46304
          CHANNELS 3 Zrotation Xrotation Yrotation
          JOINT lForeArm
          {
            OFFSET 28.1742 -1.7115 0.48768
            CHANNELS 3 Zrotation Xrotation Yrotation
            JOINT lHand
            {
              OFFSET 22.5879 0.773209 7.07136
              CHANNELS 3 Zrotation Xrotation Yrotation
              JOINT lThumb1
              {
                OFFSET 1.2192 -0.487915 3.41376
                CHANNELS 3 Zrotation Xrotation Yrotation
                JOINT lThumb2
                {
                  OFFSET 3.37035 -0.52449 3.41376
                  CHANNELS 3 Zrotation Xrotation Yrotation
                  End Site
                  {
                    OFFSET 1.78271 -1.18214 1.43049
                  }
                }
              }
              JOINT lIndex1
              {
                OFFSET 7.75947 0.938293 5.60832
                CHANNELS 3 Zrotation Xrotation Yrotation
                JOINT lIndex2
                {
                  OFFSET 2.54057 -0.884171 1.56538
                  CHANNELS 3 Zrotation Xrotation Yrotation
                  End Site
                  {
                    OFFSET 1.62519 -0.234802 1.16502
                  }
                }
              }
              JOINT lMid1
              {
                OFFSET 8.24714 1.18213 3.41376
                CHANNELS 3 Zrotation Xrotation Yrotation
                JOINT lMid2
                {
                  OFFSET 3.10165 -0.590103 1.0647
                  CHANNELS 3 Zrotation Xrotation Yrotation
                  End Site
                  {
                    OFFSET 2.48547 -0.328903 0.83742
                  }
                }
              }
              JOINT lRing1
              {
                OFFSET 8.82822 0.546677 1.51678
                CHANNELS 3 Zrotation Xrotation Yrotation
                JOINT lRing2
                {
                  OFFSET 2.60934 -0.819778 -0.0198488
                  CHANNELS 3 Zrotation Xrotation Yrotation
                  End Site
                  {
                    OFFSET 2.33842 -0.294052 0.168128
                  }
                }
              }
              JOINT lPinky1
              {
                OFFSET 8.27202 -0.0477905 -0.4584
                CHANNELS 3 Zrotation Xrotation Yrotation
                JOINT lPinky2
                {
                  OFFSET 1.82734 -0.647385 -0.700984
                  CHANNELS 3 Zrotation Xrotation Yrotation
                  End Site
                  {
                    OFFSET 1.69225 -0.51767 -0.607171
                  }
                }
              }
            }
          }
        }
      }
    }
  }
  JOINT rButtock
  {
    OFFSET -8.77824 4.35084 1.2192
    CHANNELS 3 Zrotation Xrotation Yrotation
    JOINT rThigh
    {
      OFFSET 0 -1.70687 -2.19456
      CHANNELS 3 Zrotation Xrotation Yrotation
      JOINT rShin
      {
        OFFSET 0 -36.8199 0.73152
        CHANNELS 3 Zrotation Xrotation Yrotation
        JOINT rFoot
        {
          OFFSET 0.73152 -45.1104 -5.12064
          CHANNELS 3 Zrotation Xrotation Yrotation
          End Site
          {
            OFFSET -1.1221 -3.69964 12.103
          }
        }
      }
    }
  }
  JOINT lButtock
  {
    OFFSET 8.77824 4.35084 1.2192
    CHANNELS 3 Zrotation Xrotation Yrotation
    JOINT lThigh
    {
      OFFSET 0 -1.70687 -2.19456
      CHANNELS 3 Zrotation Xrotation Yrotation
      JOINT lShin
      {
        OFFSET 0 -36.8199 0.73152
        CHANNELS 3 Zrotation Xrotation Yrotation
        JOINT lFoot
        {
          OFFSET -0.73152 -45.1104 -5.12064
          CHANNELS 3 Zrotation Xrotation Yrotation
          End Site
          {
            OFFSET 1.1221 -3.69964 12.103
          }
        }
      }
    }
  }
}
MOTION
Frames:	8
Frame Time:	0.03333
0.0 0.0 0.0 0.0 0.0 0.0 0.0 0.0 0.0 0.0 0.0 0.0 0.0 0.0 0.0 0.0 0.0 0.0 0.0 0.0 0.0 0.0 0.0 0.0 0.0 0.0 0.0 0.0 0.0 0.0 0.0 0.0 0.0 0.0 0.0 0.0 0.0 0.0 0.0 0.0 0.0 0.0 0.0 0.0 0.0 0.0 0.0 0.0 0.0 0.0 0.0 0.0 0.0 0.0 0.0 0.0 0.0 0.0 0.0 0.0 0.0 0.0 0.0 0.0 0.0 0.0 0.0 0.0 0.0 0.0 0.0 0.0 0.0 0.0 0.0 0.0 0.0 0.0 0.0 0.0 0.0 0.0 0.0 0.0 0.0 0.0 0.0 0.0 0.0 0.0 0.0 0.0 0.0 0.0 0.0 0.0 0.0 0.0 0.0 0.0 0.0 0.0 0.0 0.0 0.0 0.0 0.0 0.0 0.0 0.0 0.0 0.0 0.0 0.0 0.0 0.0 0.0 0.0 0.0 0.0 0.0 0.0 0.0 0.0 0.0 0.0 0.0 0.0 0.0 0.0 0.0 0.0
-0.050199999999999995 73.4776 -0.3014 -7.661746 47.616225 -1.515202 0.952222 6.488221 171.632405 0.051165 5.200446 -154.21854 2.805265 13.687383 22.672059 -6.876936 -18.757861 17.443162 -0.004065 -0.0 0.000311 0.001664 0.0 0.000301 0.163168 -0.990066 -0.21831 17.152377 0.040995 -0.649809 -60.814022 -65.584789 49.67527 -13.760162 -68.213208 -20.416437 51.059117 -41.204409 12.856622 -6.122477 -39.133726 -30.22545 -50.386151 40.826875 40.024285 84.571468 -62.774959 37.5282 12.028288 -37.299381 -3.218079 -164.120486 -6.964709 143.521754 -0.02218 -1.725455 -0.540499 -154.177305 11.945042 170.231538 -11.661728 -23.131937 -11.067068 -147.433949 13.47537 -144.013967 -0.022686 -0.138672 0.030909 27.615062 86.216886 -92.876881 -86.960288 64.601645 139.514177 -172.49346 0.532319 -147.827992 174.052163 -11.718528 -89.878922 152.691885 4.553895 -80.251322 -4.60862 -7.831114 2.378726 -123.262026 -61.516437 -64.727598 160.992153 -7.65915 -143.393252 -2.652312 1.632429 -0.58669 -0.005802 1.771485 -0.555817 154.377548 12.771767 -170.104819 126.796477 -26.617854 124.510761 140.297406 -5.511031 137.018947 179.974777 75.750841 0.020753 179.807381 35.651615 -0.838417 16.894166 70.478335 -89.165272 3.100964 -45.316437 64.128162 -179.996678 75.74839 -0.003428 177.181423 27.996116 180.0 39.655524 -76.443091 111.915539 75.190634 -21.364698 147.21689
-0.0916 73.45270000000001 -0.4488 -7.913559 48.424657 -1.75928 1.603539 11.484044 -8.00377 -0.079826 -9.971382 25.386856 -1.791656 33.230123 -155.77807 12.729572 38.642813 -166.393451 -0.002678 -0.0 0.001003 0.003044 -0.0 -0.004519 -152.134994 14.084315 157.564647 30.508155 -57.112268 29.797799 -81.252097 35.202259 -99.1678 -169.500427 -40.327809 158.135161 -94.791568 37.828174 54.283738 13.864526 -25.356689 23.708532 -10.67902 15.143696 6.94204 -167.855353 -19.97533 109.799581 -153.320417 13.628499 138.861217 -172.230445 -31.373073 143.668954 -0.016165 -1.323269 -0.415077 11.654576 -29.44448 -3.531368 31.506126 83.082798 6.654558 0.347901 -2.652628 -1.833208 44.040164 64.187155 -46.710083 -8.203502 18.623148 -63.59368 -71.484737 61.539449 121.44578 -172.931516 1.939209 -147.959356 -148.870254 -40.126299 -77.649565 4.109467 -70.717872 17.10271 -45.280255 -63.866263 -4.30418 3.411501 27.910036 -4.502367 0.058701 0.167676 -0.032364 155.968597 15.618268 -139.904838 145.120205 0.226614 179.199582 149.038028 -40.109765 171.581591 -5.664482 16.87203 -5.086899 148.170706 13.332154 144.030905 179.99905 75.748497 0.00065 179.158698 33.333331 -173.638761 -59.602023 -59.52202 -142.966093 175.582107 19.142673 110.263471 -0.0 -0.000563 -0.00015 -1.039202 -46.011555 -36.125332 -69.212741 44.054397 -11.003241 -142.843627 77.74208 -121.057057
-0.15610000000000002 73.4349 -0.6224999999999999 -8.210122 49.422052 -2.01741 0.137056 7.352967 149.17695 -2.877797 4.650149 -131.279126 -3.998944 32.569245 -143.279892 19.425505 36.248521 179.19313 0.002767 -0.0 -0.000805 -0.002962 0.0 -0.000755 -155.538016 -3.733392 161.88467 -127.537023 66.333547 126.646045 179.659756 -6.527952 34.144311 -142.069221 32.868292 125.481546 -68.482853 37.952778 35.659913 71.443018 -48.850926 23.554607 -4.707275 7.223819 2.854918 169.674981 -44.710383 100.513775 -12.843441 28.997171 9.14905 -170.989379 -28.575357 144.204289 0.004681 1.771138 0.554902 -44.424912 77.331264 57.503126 -162.889013 73.156588 -150.767733 -24.560716 -39.308533 -24.852329 147.671353 29.084686 -152.475316 -37.488592 -54.385606 -78.617498 33.61762 5.277086 37.361619 -66.535436 -65.606096 -54.643844 78.03024 38.68908 -42.413051 -8.286317 -17.962383 -22.624588 152.103532 -18.556662 -121.368723 7.920289 31.893171 -0.164897 -78.535753 -80.919919 -49.687118 163.464185 -4.717034 -143.150985 145.122073 1.892909 179.725308 151.191954 -32.046248 173.812557 126.797747 -26.619364 124.512366 84.571891 -52.253112 84.691881 3.7e-05 -0.000459 -4.8e-05 -1.711175 -40.103038 -2.655314 48.187425 62.926521 43.093891 175.936366 60.295299 92.514517 0.000998 0.000401 -0.001283 -0.169982 -46.130247 -0.235785 14.0547 75.602374 62.4772 -156.45569 9.621019 30.213118
-0.1941 73.4147 -0.8279 -8.526479 50.611844 -2.155679 -0.581822 11.028696 54.460997 -6.784176 -5.895431 -36.964228 4.595289 14.273437 33.261679 -12.993391 -17.867273 4.654871 0.002057 0.0 0.002254 0.002127 -0.0 -0.001423 -80.166276 68.371433 83.260876 41.531121 -53.45088 30.21904 -113.693485 -82.927483 -7.674533 -13.569094 -50.575479 -13.437077 83.254 -50.258018 33.615989 -15.250935 -39.562415 -29.351545 -151.3527 -17.158286 121.133721 -5.053576 28.123695 -1.871435 -111.804514 56.305577 102.277882 -163.088859 -4.787944 143.115336 -145.120392 0.267156 -179.213638 11.902246 29.602659 -5.638734 -111.058323 -41.158794 -109.116306 179.785401 78.992871 -136.248453 0.273383 1.606832 -0.36057 -63.767004 -0.888616 -0.470634 -152.522057 -2.639616 -122.897023 -174.871225 7.773404 -148.250682 171.603982 -9.286079 -89.949434 149.36053 5.293965 -77.194315 50.386764 40.825763 -40.025134 -90.152172 -63.428093 -42.195793 169.089277 -33.247441 -145.374968 1.483669 12.582257 -2.533046 145.120979 1.974191 179.749372 152.192356 -26.993253 174.945258 80.93982 -51.226942 79.359492 42.974155 -50.267997 44.372986 0.003084 0.00012 0.001542 -2.597928 -40.163941 -0.0 34.598812 70.20422 -126.550232 46.876166 33.168169 62.249706 -179.996923 75.748743 -0.003175 -178.692889 29.108649 -2.685442 -3.527228 80.269662 117.49964 -179.418751 -37.034436 84.23335
-0.2925 73.3913 -1.0524 -8.749846 52.078098 -2.286601 1.312308 12.216487 -0.224289 -0.915439 -9.983827 17.496785 2.491783 13.749724 22.851746 -7.667358 -20.73347 15.384393 -0.000101 0.0 -0.004851 -4.3e-05 -0.0 0.000573 -3.908756 18.449065 4.804788 -3.452261 62.188508 29.976396 176.577765 -45.250774 -75.438556 -15.014705 -37.060053 -9.348037 -7.75891 7.438954 1.681937 -127.629749 -25.558772 110.858777 11.980867 -21.346916 -5.063008 3.137979 14.868966 2.339508 -89.834842 60.702246 81.263075 -0.08488 9.852687 1.784585 -70.378605 -72.130585 -87.279727 -57.8626 -82.323281 -83.765247 1.136372 3.040364 1.043121 -13.881217 -31.167978 -14.912458 -3.206323 -26.010352 5.105825 168.814185 67.626652 129.255541 -164.37457 -54.984324 168.481956 13.699351 47.430548 -5.164258 15.474475 14.199409 -4.246885 26.912415 17.723555 -30.358693 152.813652 -19.87256 -121.573491 155.15665 -3.228569 -118.989239 158.523277 -0.191713 -142.145791 88.633024 63.700032 -80.371726 145.118666 0.267929 179.212153 -12.116414 44.684508 3.8641 -2.934366 8.212562 -2.676729 147.065635 10.270311 143.346294 8.4e-05 0.000182 2.1e-05 -3.86517 -42.568377 167.604032 -3.13687 -74.353647 101.945158 -137.413801 -63.558429 -45.062629 -0.000199 0.000182 -0.000199 3.464994 -47.254776 -0.0 -6.584215 77.582385 95.549879 42.757492 -66.877331 -36.029889
-0.3379 73.345 -1.2623 -8.829657 53.755787 -2.145556 1.138046 12.38329 -0.0 -0.835875 -10.001136 17.198127 -9.747564 19.964799 -55.68365 31.620999 -4.556271 97.031004 5.1e-05 -0.0 -0.000599 5.1e-05 -0.0 -0.000599 2.459863 -18.216341 -3.669259 -21.560408 80.703025 46.38466 130.321238 -68.700165 -118.907824 -17.474745 -23.017389 -5.235036 -89.136203 38.427787 50.299139 -67.795011 -1.815897 54.021978 -0.327788 0.529626 0.187569 -4.518665 20.46433 5.451653 6.908886 -21.623988 -2.810159 -1.386897 12.625465 2.181706 -145.122255 1.975169 -179.749371 -154.432319 -11.536369 -177.657307 -87.575172 -50.20728 -85.929725 16.405542 41.536724 7.084629 155.54783 -3.804289 -161.900043 7.928579 -77.917613 -36.287235 91.984365 -54.640887 85.901231 -10.058255 -20.085388 -5.163804 -6.463453 -6.452761 0.63508 7.454342 7.362278 -2.163695 -37.215823 -57.917835 0.644498 71.231248 51.821996 -59.221564 -68.982639 -80.154488 -40.577976 -2.970463 0.155206 -0.182188 145.112552 -0.668192 178.917588 -11.657648 58.792999 1.665887 144.257332 9.238565 141.009108 -56.493176 82.243949 19.212604 -179.994612 75.750311 -0.003687 175.942176 35.118283 0.0 57.543386 64.48978 70.772282 -102.021569 -22.262417 -163.367928 -0.0 0.000145 0.001021 4.914915 -50.073284 170.636251 55.705318 -74.000915 -24.620481 29.5499 -75.187837 -51.40924
-0.2974 73.3248 -1.4295 -9.03997 55.668989 -2.21796 0.212424 7.846848 163.720054 -1.407683 5.127075 -146.200104 2.5655 13.915535 22.978601 -8.943716 -22.494232 12.763245 -0.001497 0.0 -0.001728 -0.001497 0.0 -0.001728 -149.850342 22.601772 154.91407 -10.109422 13.983804 16.406086 149.912897 8.93817 -54.010885 -23.188089 -1.216741 2.119599 4.530578 -4.51423 -0.520654 -15.821904 15.687228 11.06242 -151.353561 -17.158328 121.13304 -174.56957 -39.679972 116.491417 -169.088251 -33.24761 145.374971 20.811838 -47.372822 1.470577 0.005814 1.771697 0.554432 -75.787317 78.81655 89.043604 -144.260075 9.236985 -141.011101 2.476207 0.287298 -1.89406 6.251452 26.219143 -7.468234 113.521106 -15.847804 -156.574626 -62.532646 31.984003 44.717919 153.907124 64.822161 -132.113684 -4.52988 -4.514515 0.520938 -19.635231 -36.912063 17.864783 140.685832 1.50641 -116.183439 15.342856 36.99879 -4.367026 152.826768 14.793252 -138.514601 42.418655 58.293453 -36.596406 145.111815 -0.627312 178.932626 141.762231 -56.541173 163.98125 23.392159 -36.348692 22.49465 159.230261 55.721519 149.613869 -179.998456 75.748917 -0.001594 175.026339 34.87613 2.767605 33.561585 67.896496 -104.819186 88.411922 32.957124 17.229774 -0.000207 -0.001004 -0.0 8.161005 -50.179748 -130.185033 -61.400796 -51.493221 99.234959 -120.302196 -56.672565 -33.822308
